HIERARCHY
ROOT Hips
{
	OFFSET 0.000000 0.000000 0.000000
	CHANNELS 6 Xposition Yposition Zposition Xrotation Yrotation Zrotation
	JOINT LeftUpLeg_virtual
	{
		OFFSET 0.000000 0.000000 0.000000
		CHANNELS 3 Xrotation Yrotation Zrotation
		JOINT LeftUpLeg
		{
			OFFSET 10.205400 -3.823500 0.155100
			CHANNELS 3 Xrotation Yrotation Zrotation
			JOINT LeftLeg
			{
				OFFSET 0.708757 -12.982077 0.567790
				CHANNELS 3 Xrotation Yrotation Zrotation
				JOINT LeftFoot
				{
					OFFSET -0.708756 -10.717838 -2.184338
					CHANNELS 3 Xrotation Yrotation Zrotation
					JOINT LeftToeBase
					{
						OFFSET 0.108149 -7.191104 7.560241
						CHANNELS 3 Xrotation Yrotation Zrotation
						JOINT LeftToe_End
						{
							OFFSET 0.070230 0.081724 4.490308
							CHANNELS 3 Xrotation Yrotation Zrotation
							End Site
							{
								OFFSET 0 0 0
							}
						}
					}
				}
			}
		}
	}
	JOINT RightUpLeg_virtual
	{
		OFFSET 0.000000 0.000000 0.000000
		CHANNELS 3 Xrotation Yrotation Zrotation
		JOINT RightUpLeg
		{
			OFFSET -10.205400 -3.823500 0.005500
			CHANNELS 3 Xrotation Yrotation Zrotation
			JOINT RightLeg
			{
				OFFSET -0.708756 -12.982134 0.610632
				CHANNELS 3 Xrotation Yrotation Zrotation
				JOINT RightFoot
				{
					OFFSET 0.708754 -10.717769 -1.945823
					CHANNELS 3 Xrotation Yrotation Zrotation
					JOINT RightToeBase
					{
						OFFSET -0.108140 -7.191069 7.372968
						CHANNELS 3 Xrotation Yrotation Zrotation
						JOINT RightToe_End
						{
							OFFSET -0.070227 0.081735 4.479403
							CHANNELS 3 Xrotation Yrotation Zrotation
							End Site
							{
								OFFSET 0 0 0
							}
						}
					}
				}
			}
		}
	}
	JOINT Spine_virtual
	{
		OFFSET 0.000000 0.000000 0.000000
		CHANNELS 3 Xrotation Yrotation Zrotation
		JOINT Spine
		{
			OFFSET 0.000000 6.876099 0.125700
			CHANNELS 3 Xrotation Yrotation Zrotation
			JOINT Spine1
			{
				OFFSET 0.000000 5.730043 0.104720
				CHANNELS 3 Xrotation Yrotation Zrotation
				JOINT Spine1_split
				{
					OFFSET 0.000000 5.730043 0.104720
					CHANNELS 3 Xrotation Yrotation Zrotation
					JOINT Spine2
					{
						OFFSET 0.000000 5.730043 0.104720
						CHANNELS 3 Xrotation Yrotation Zrotation
						JOINT Neck_virtual
						{
							OFFSET 0.000000 0.000000 0.000000
							CHANNELS 3 Xrotation Yrotation Zrotation
							JOINT Neck
							{
								OFFSET 0.000000 10.314075 0.188496
								CHANNELS 3 Xrotation Yrotation Zrotation
								JOINT Head
								{
									OFFSET 0.000000 7.643700 -2.377400
									CHANNELS 3 Xrotation Yrotation Zrotation
									JOINT HeadTop_End
									{
										OFFSET 0.000000 43.788605 -13.619600
										CHANNELS 3 Xrotation Yrotation Zrotation
										End Site
										{
											OFFSET 0 0 0
										}
									}
								}
							}
						}
						JOINT LeftShoulder_virtual
						{
							OFFSET 0.000000 0.000000 0.000000
							CHANNELS 3 Xrotation Yrotation Zrotation
							JOINT LeftShoulder
							{
								OFFSET 2.196100 4.412489 0.087492
								CHANNELS 3 Xrotation Yrotation Zrotation
								JOINT LeftShoulder_split
								{
									OFFSET 2.196100 4.412489 0.087492
									CHANNELS 3 Xrotation Yrotation Zrotation
									JOINT LeftArm
									{
										OFFSET 8.771219 -2.981674 -0.026999
										CHANNELS 3 Xrotation Yrotation Zrotation
										JOINT LeftForeArm
										{
											OFFSET 8.512804 0.000000 -0.000000
											CHANNELS 3 Xrotation Yrotation Zrotation
											JOINT LeftHand
											{
												OFFSET 18.484802 0.000000 -0.000000
												CHANNELS 3 Xrotation Yrotation Zrotation
												End Site
												{
													OFFSET 0 0 0
												}
											}
										}
									}
								}
							}
						}
						JOINT RightShoulder_virtual
						{
							OFFSET 0.000000 0.000000 0.000000
							CHANNELS 3 Xrotation Yrotation Zrotation
							JOINT RightShoulder
							{
								OFFSET -2.196100 4.412496 0.070690
								CHANNELS 3 Xrotation Yrotation Zrotation
								JOINT RightShoulder_split
								{
									OFFSET -2.196100 4.412496 0.070690
									CHANNELS 3 Xrotation Yrotation Zrotation
									JOINT RightArm
									{
										OFFSET -8.771282 -2.981682 -0.094208
										CHANNELS 3 Xrotation Yrotation Zrotation
										JOINT RightForeArm
										{
											OFFSET -8.494598 0.000000 0.000000
											CHANNELS 3 Xrotation Yrotation Zrotation
											JOINT RightHand
											{
												OFFSET -18.483803 0.000000 0.000001
												CHANNELS 3 Xrotation Yrotation Zrotation
												End Site
												{
													OFFSET 0 0 0
												}
											}
										}
									}
								}
							}
						}
					}
				}
			}
		}
	}
}
MOTION
Frames: 12
Frame Time: 0.03333333
0.432429 32.234005 -4.090551 0.000000 0.000000 0.000000 4.761420 35.031105 0.744171 -37.169196 -11.378947 -0.510849 24.245348 10.095081 -1.238737 7.876844 -0.499648 -11.772759 6.643638 -4.367307 4.653033 0.000000 0.000000 0.000000 5.797635 31.787970 0.392903 25.095722 -25.499852 6.043716 11.976115 3.265710 4.772945 -47.818670 -20.501009 0.552071 1.537646 13.412629 -2.520942 0.000000 0.000000 0.000000 5.979031 36.834835 -0.758344 4.710652 1.214001 -1.296904 1.028317 1.800036 1.230903 0.054418 0.113096 -0.037899 0.000000 0.000000 0.000000 2.046023 3.546956 1.740595 -9.447645 9.159121 -5.502123 -19.836317 -15.940007 -5.329820 0.000000 0.000000 0.000000 0.329262 2.397138 1.226414 0.018782 4.254872 4.162681 5.769404 -1.865171 1.507384 -81.606595 7.201881 -32.650920 2.808150 -59.394642 5.851035 0.000000 0.000000 0.000000 1.758974 2.714642 2.060285 0.957740 4.932962 5.210385 -3.327376 -0.611908 -0.133126 5.854937 6.998461 70.504771 5.137474 24.735031 -4.819460 0.000000 0.000000 0.000000 
0.279525 32.267693 -4.073032 0.000000 0.000000 0.000000 5.360793 32.868943 0.308300 -36.410454 -11.214471 1.210938 24.888333 9.743183 -1.825543 6.326794 1.081811 -12.186273 6.659676 -4.570708 4.928361 0.000000 0.000000 0.000000 6.333162 29.863674 0.030574 22.802248 -24.152589 4.875074 13.146796 3.518431 4.694798 -47.203492 -20.289176 1.369204 1.598066 13.385488 -2.144384 0.000000 0.000000 0.000000 6.481054 34.806784 -1.132470 4.558160 1.339643 -1.519112 1.219792 1.754510 1.379184 0.059126 0.110921 -0.037091 0.000000 0.000000 0.000000 2.135944 3.547125 1.850169 -9.007037 8.370608 -4.398484 -19.708567 -16.142969 -5.175031 0.000000 0.000000 0.000000 0.533467 2.310563 1.448577 -0.023512 3.604856 4.179751 5.789063 -1.784225 1.323295 -81.601117 7.326762 -34.214979 2.687455 -61.608559 5.568567 0.000000 0.000000 0.000000 1.785146 2.606514 2.214655 1.187895 5.255206 5.080323 -3.624664 -0.741107 -0.121430 5.675795 7.322461 70.872502 4.750569 25.911392 -4.919340 0.000000 0.000000 0.000000 
0.130597 32.294624 -4.066299 0.000000 0.000000 0.000000 6.066869 30.589473 -0.152294 -35.627066 -11.046552 3.047574 25.458132 9.394057 -2.370719 4.642578 2.752114 -12.725223 6.638477 -4.784273 5.182399 0.000000 0.000000 0.000000 6.940401 27.735428 -0.341818 20.329276 -22.660739 3.726557 14.360118 3.760689 4.592937 -46.583697 -20.031789 2.162903 1.798324 13.365032 -1.838139 0.000000 0.000000 0.000000 7.096996 32.600841 -1.515752 4.382527 1.392567 -1.733430 1.428863 1.716323 1.495602 0.063961 0.124983 -0.038720 0.000000 0.000000 0.000000 2.279432 3.563963 1.932259 -8.903229 7.525642 -3.170413 -19.806744 -16.487699 -4.968819 0.000000 0.000000 0.000000 0.772844 2.257930 1.643412 -0.076366 2.943790 4.173158 5.827502 -1.884002 1.150173 -81.499532 7.285292 -36.048543 2.822599 -63.832011 5.549309 0.000000 0.000000 0.000000 1.845969 2.509659 2.327992 1.392504 5.561493 4.991818 -3.938798 -0.885588 -0.130147 5.489753 7.754975 71.216559 4.402346 27.101190 -4.943792 0.000000 0.000000 0.000000 
-0.006294 32.316933 -4.072844 0.000000 0.000000 0.000000 6.841969 28.029259 -0.616359 -34.884115 -10.837862 5.039087 26.162929 8.985401 -2.876575 3.134272 4.435203 -13.537265 6.526789 -5.012141 5.385186 0.000000 0.000000 0.000000 7.620157 25.308612 -0.726337 17.655605 -21.051285 2.633461 15.592294 3.988578 4.477183 -45.837519 -19.707712 2.983621 2.128194 13.347038 -1.647700 0.000000 0.000000 0.000000 7.818775 30.154944 -1.902694 4.186544 1.377653 -1.925332 1.635925 1.687610 1.562601 0.064767 0.159382 -0.038688 0.000000 0.000000 0.000000 2.467912 3.594157 1.970365 -9.137888 6.570773 -1.772802 -20.056485 -17.104570 -4.650027 0.000000 0.000000 0.000000 1.030675 2.239527 1.791108 -0.138666 2.299303 4.139265 5.903724 -2.166774 1.049787 -81.313409 7.035879 -38.080343 3.092008 -65.835592 5.707139 0.000000 0.000000 0.000000 1.930676 2.427330 2.385236 1.559661 5.851473 4.968517 -4.222682 -0.998212 -0.145331 5.268462 8.373305 71.485504 4.105552 28.210660 -4.880423 0.000000 0.000000 0.000000 
-0.125125 32.336308 -4.084385 0.000000 0.000000 0.000000 7.657996 25.022738 -1.048116 -34.181094 -10.496347 7.170736 27.179459 8.519642 -3.303377 1.766134 6.207602 -14.524363 6.510623 -5.250289 5.460469 0.000000 0.000000 0.000000 8.362707 22.531098 -1.101475 14.738351 -19.350988 1.572524 16.788079 4.247070 4.374055 -44.778693 -19.270952 3.958609 2.500708 13.320052 -1.593070 0.000000 0.000000 0.000000 8.599016 27.372033 -2.273366 3.972932 1.312275 -2.079658 1.842012 1.673908 1.568094 0.064481 0.199465 -0.032732 0.000000 0.000000 0.000000 2.692345 3.634437 1.950730 -9.669016 5.481779 -0.174371 -20.387782 -18.028225 -4.209855 0.000000 0.000000 0.000000 1.307675 2.242686 1.873778 -0.206269 1.666669 4.064877 5.939873 -2.577892 0.985869 -81.068724 6.566066 -40.156004 3.319451 -67.349722 5.882291 0.000000 0.000000 0.000000 2.028832 2.362307 2.381368 1.675474 6.113228 5.026232 -4.477487 -1.115938 -0.182866 4.976976 9.191148 71.614868 3.859643 29.100547 -4.727793 0.000000 0.000000 0.000000 
-0.222934 32.349953 -4.100687 0.000000 0.000000 0.000000 8.472216 21.503220 -1.402781 -33.323397 -9.854865 9.366253 28.365308 8.110621 -3.622166 0.045045 8.168782 -15.365038 6.772954 -5.490540 5.362385 0.000000 0.000000 0.000000 9.133126 19.283808 -1.413672 11.534857 -17.557423 0.503848 17.898010 4.583944 4.290896 -43.255581 -18.677275 5.174544 2.814921 13.260409 -1.672293 0.000000 0.000000 0.000000 9.369696 24.151388 -2.587209 3.744690 1.214617 -2.185818 2.044425 1.678598 1.506789 0.078695 0.236849 -0.036769 0.000000 0.000000 0.000000 2.946051 3.683986 1.869119 -10.393557 4.243569 1.628676 -20.703949 -19.275704 -3.686297 0.000000 0.000000 0.000000 1.599931 2.260686 1.884610 -0.272048 1.049261 3.918482 5.967915 -3.072968 1.024133 -80.803023 5.914895 -42.105726 3.295065 -68.130099 5.884129 0.000000 0.000000 0.000000 2.138821 2.314861 2.314050 1.735560 6.332384 5.157057 -4.707074 -1.227255 -0.199152 4.561253 10.150474 71.533282 3.658735 29.675485 -4.487971 0.000000 0.000000 0.000000 
-0.296345 32.355545 -4.129248 0.000000 0.000000 0.000000 9.228479 17.487320 -1.638908 -32.175259 -8.791118 11.582129 29.453234 7.684434 -3.810770 -2.269123 10.221800 -16.097234 7.108661 -5.736395 5.172650 0.000000 0.000000 0.000000 9.855216 15.563716 -1.615579 8.043817 -15.639680 -0.583864 18.913216 5.015246 4.235200 -41.226670 -17.872225 6.574771 3.088483 13.125218 -1.875720 0.000000 0.000000 0.000000 10.072393 20.474435 -2.799549 3.508604 1.096572 -2.240821 2.240958 1.695286 1.379105 0.103152 0.255851 -0.045400 0.000000 0.000000 0.000000 3.226909 3.734149 1.727321 -11.197563 2.867301 3.616430 -20.960071 -20.716823 -3.152103 0.000000 0.000000 0.000000 1.910357 2.280915 1.825303 -0.338130 0.483915 3.676961 5.926904 -3.618352 1.150439 -80.488267 5.137172 -43.780966 2.891531 -68.224069 5.581251 0.000000 0.000000 0.000000 2.269169 2.274419 2.177706 1.747236 6.490814 5.336042 -4.921659 -1.346426 -0.176184 4.015820 11.143700 71.237971 3.492744 29.922198 -4.174005 0.000000 0.000000 0.000000 
-0.342908 32.354698 -4.173546 0.000000 0.000000 0.000000 9.906752 13.048282 -1.720480 -30.798214 -7.296650 13.734422 30.385439 7.129345 -3.891544 -4.969792 12.192215 -16.847922 7.265405 -6.014637 4.951199 0.000000 0.000000 0.000000 10.509953 11.358518 -1.670904 4.322275 -13.590313 -1.682278 19.844652 5.541797 4.193785 -38.742995 -16.824310 8.080932 3.330585 12.881997 -2.196697 0.000000 0.000000 0.000000 10.662175 16.338383 -2.853747 3.264589 0.962897 -2.247025 2.426321 1.715120 1.194350 0.114894 0.257514 -0.045667 0.000000 0.000000 0.000000 3.527595 3.778986 1.536091 -11.954156 1.398302 5.722087 -21.108824 -22.224643 -2.690729 0.000000 0.000000 0.000000 2.234347 2.297383 1.709877 -0.414546 0.053301 3.327922 5.914377 -4.214194 1.313645 -80.093394 4.302398 -45.083558 2.180261 -67.919463 5.029397 0.000000 0.000000 0.000000 2.419544 2.227326 1.978553 1.724204 6.559969 5.524703 -5.119856 -1.453715 -0.104946 3.352795 12.056223 70.756170 3.356668 29.932348 -3.796982 0.000000 0.000000 0.000000 
-0.363118 32.349304 -4.229361 0.000000 0.000000 0.000000 10.511301 8.291789 -1.645352 -29.331196 -5.351443 15.782160 31.225050 6.364915 -3.936637 -7.538379 13.905577 -17.678377 7.159915 -6.339484 4.725513 0.000000 0.000000 0.000000 11.071101 6.731082 -1.564306 0.440570 -11.399728 -2.740405 20.694044 6.133563 4.146666 -35.902346 -15.553078 9.652165 3.443282 12.498270 -2.659277 0.000000 0.000000 0.000000 11.135164 11.823828 -2.715287 3.017115 0.810442 -2.212825 2.593549 1.718167 0.978975 0.123994 0.261240 -0.047476 0.000000 0.000000 0.000000 3.838483 3.803578 1.320006 -12.536542 -0.106351 7.870477 -21.067087 -23.677525 -2.359263 0.000000 0.000000 0.000000 2.568510 2.299031 1.569781 -0.507441 -0.166621 2.865686 5.995937 -4.871427 1.487711 -79.547183 3.451408 -46.023539 1.326202 -67.604099 4.356266 0.000000 0.000000 0.000000 2.580893 2.147455 1.731515 1.676057 6.529047 5.670331 -5.258998 -1.522643 0.015668 2.574474 12.796937 70.176826 3.235326 29.828819 -3.366595 0.000000 0.000000 0.000000 
-0.363098 32.341892 -4.294428 0.000000 0.000000 0.000000 11.056352 3.280084 -1.401309 -27.986371 -3.002278 17.721317 32.052879 5.408620 -3.982380 -9.553877 15.295189 -18.610206 6.780359 -6.709761 4.492099 0.000000 0.000000 0.000000 11.557001 1.789924 -1.290253 -3.496685 -9.062328 -3.680730 21.503508 6.779942 4.072665 -32.834574 -14.074377 11.276372 3.428872 11.973749 -3.311769 0.000000 0.000000 0.000000 11.498900 7.012562 -2.376091 2.765427 0.632668 -2.147040 2.745973 1.684996 0.762026 0.120900 0.262117 -0.043870 0.000000 0.000000 0.000000 4.146931 3.787680 1.109548 -12.868205 -1.551928 9.964474 -20.845389 -24.909729 -2.224005 0.000000 0.000000 0.000000 2.906251 2.270315 1.432361 -0.620419 -0.143962 2.326923 6.165511 -5.597659 1.625090 -78.807570 2.617838 -46.675054 0.464523 -67.626536 3.661729 0.000000 0.000000 0.000000 2.738667 2.019522 1.465502 1.610320 6.401726 5.745199 -5.333712 -1.527647 0.169595 1.681761 13.304076 69.601472 3.122246 29.710770 -2.894579 0.000000 0.000000 0.000000 
-0.351037 32.329857 -4.364666 0.000000 0.000000 0.000000 11.588358 -1.898729 -0.987336 -26.833967 -0.258928 19.458345 32.804374 4.462778 -4.033547 -11.123853 16.515667 -19.386905 6.253972 -7.114317 4.135336 0.000000 0.000000 0.000000 12.041098 -3.300262 -0.851691 -7.391522 -6.602542 -4.441298 22.226528 7.471423 3.958235 -29.768000 -12.352427 12.912154 3.434536 11.348227 -4.209092 0.000000 0.000000 0.000000 11.817776 1.992121 -1.862046 2.505189 0.437643 -2.050798 2.895397 1.603125 0.568089 0.116566 0.264133 -0.031656 0.000000 0.000000 0.000000 4.445224 3.722507 0.934748 -12.907347 -2.839688 11.892910 -20.444973 -25.864863 -2.302453 0.000000 0.000000 0.000000 3.230366 2.204123 1.321061 -0.744002 0.081795 1.764289 6.444397 -6.369031 1.698442 -77.952437 1.794304 -47.154093 -0.267816 -68.042515 3.045080 0.000000 0.000000 0.000000 2.872123 1.834160 1.212764 1.527558 6.179620 5.736466 -5.403034 -1.533243 0.363227 0.659548 13.582462 69.105204 3.012126 29.630105 -2.386191 0.000000 0.000000 0.000000 
-0.331394 32.315979 -4.435894 0.000000 0.000000 0.000000 12.165406 -7.133900 -0.401495 -25.826938 2.893295 20.915298 33.322816 3.696469 -4.056869 -12.591297 17.721332 -19.851936 5.649810 -7.520553 3.592933 0.000000 0.000000 0.000000 12.586705 -8.400758 -0.246926 -11.191668 -4.056106 -4.965181 22.752876 8.171465 3.794744 -26.917820 -10.395642 14.460299 3.568998 10.670172 -5.371505 0.000000 0.000000 0.000000 12.162157 -3.137780 -1.198018 2.246544 0.232622 -1.927158 3.053165 1.465398 0.415504 0.121942 0.260508 -0.008837 0.000000 0.000000 0.000000 4.729997 3.604082 0.813029 -12.690383 -3.909938 13.562094 -19.926551 -26.531510 -2.589229 0.000000 0.000000 0.000000 3.541038 2.094533 1.248195 -0.868057 0.442516 1.241457 6.682137 -7.115972 1.700695 -77.090740 0.977533 -47.563743 -0.841507 -68.692886 2.512353 0.000000 0.000000 0.000000 2.974120 1.594355 0.999087 1.419209 5.864481 5.650861 -5.436416 -1.537217 0.575933 -0.517011 13.631466 68.754399 2.906889 29.562520 -1.858204 0.000000 0.000000 0.000000 
